<svg width="42" height="21" viewBox="0 0 42 21" fill="none" xmlns="http://www.w3.org/2000/svg">
<path d="M0.586235 0.00324004H4.08485C4.3764 0.00324004 4.66795 0.294782 4.66795 0.586323V20.4394C4.66795 20.7497 4.41715 21.0005 4.10679 21.0005H0.583102C0.263337 21.0005 0 20.7372 0 20.4174V0.586323C0.00313496 0.294782 0.294684 0.00324004 0.586235 0.00324004Z" fill="#1C1C1C"/>
<path d="M40.8307 7.58321L33.8303 0.583083C33.2472 2.08622e-07 32.6641 0 31.4979 0H27.4162C27.0933 0 26.8331 0.260193 26.8331 0.583083V20.4142C26.8331 20.7371 27.0933 20.9973 27.4162 20.9973H30.8992C31.2315 20.9973 31.4979 20.7277 31.4979 20.3985V5.64274C31.4979 5.28223 31.9337 5.10354 32.1876 5.35747L36.9496 10.1193C37.1596 10.3293 37.1596 10.671 36.9496 10.8842L33.9432 13.8905C33.8711 13.9626 33.8335 14.0567 33.8335 14.1601V19.7026C33.8335 19.9659 34.1532 20.1007 34.3413 19.9126L40.8338 13.4203C41.7085 12.2541 42 11.6711 42 10.5049C42 9.33873 41.7053 8.75251 40.8307 7.58321Z" fill="#1C1C1C"/>
<path d="M23.9165 0.00299081H19.8348C18.6686 0.00299081 18.0855 0.00299102 17.5024 0.586074L7.35146 10.7367C7.12888 10.9593 7.00348 11.2603 7.00348 11.5737V16.7243C7.00348 17.0096 7.34833 17.1538 7.54896 16.95L19.142 5.35732C19.3991 5.10026 19.8348 5.28209 19.8348 5.64573V15.2541C19.8348 15.6396 19.3646 15.8246 19.1013 15.5425L16.029 12.2509C15.8785 12.0879 15.6215 12.0847 15.4647 12.2415L12.8376 14.8685C12.6746 15.0315 12.6715 15.2979 12.8282 15.4672L17.4993 20.414C18.0824 20.9971 18.6655 20.9971 19.8317 20.9971H23.9134C24.2363 20.9971 24.4965 20.7369 24.4965 20.414V0.582941C24.4996 0.263186 24.2363 0.00299081 23.9165 0.00299081Z" fill="#1C1C1C"/>
</svg>
